<svg width="1018" height="369" viewBox="0 0 1018 369" fill="none" xmlns="http://www.w3.org/2000/svg">
<g clip-path="url(#clip0_2722_493)">
<path d="M420.96 311.26L441.43 68.76H463.23L444.08 281.75L537.68 68.76H558.69L547.79 282.28L633.14 68.76H648.03L546.19 311.26H525.72L536.36 104.12L441.43 311.26H420.96Z" fill="black"/>
<path d="M595.12 274.3C595.12 230.69 624.63 204.1 646.97 204.1C663.99 204.1 671.43 214.2 671.43 227.23C671.43 236.27 665.58 247.17 656.27 255.95C643.77 267.65 630.21 271.37 617.18 273.23H616.65C617.71 286.52 624.63 295.03 638.72 295.03C654.14 295.03 677.54 281.74 690.84 258.34L701.21 263.92C683.4 292.9 657.87 312.05 632.61 312.05C611.34 312.05 595.12 300.35 595.12 274.29V274.3ZM617.19 261.28C627.29 259.42 640.32 252.24 648.03 243.73C653.61 237.35 658.93 229.11 658.93 222.99C658.93 217.41 655.21 213.68 649.62 213.68C633.67 213.68 619.84 240 616.91 261.28H617.18H617.19Z" fill="black"/>
<path d="M690.78 261.54C690.78 242.93 707.53 211.55 737.31 201.98C719.76 195.86 708.06 180.18 708.06 158.37C708.06 105.72 758.58 66.63 796.87 66.63C827.71 66.63 847.39 85.78 845.26 114.23C844.2 130.18 837.81 146.14 827.18 161.83L809.1 155.71C819.47 138.96 826.65 125.13 827.71 112.37C829.57 90.57 818.94 76.74 800.06 76.74C774 76.74 731.19 117.95 731.19 157.31C731.19 182.57 744.22 194.8 766.02 194.8H778.52V206.5C743.95 206.23 714.7 228.84 714.7 262.61C714.7 280.69 729.59 295.58 750.6 295.58C768.15 295.58 788.36 279.36 800.06 258.35L810.7 263.93C793.95 293.44 771.35 314.72 743.96 314.72C711.79 314.72 690.78 294.78 690.78 261.54Z" fill="#F2C435"/>
<path d="M875.42 291.32C866.38 305.41 855.21 312.06 845.37 312.06C826.49 312.06 814.79 297.17 814.79 275.9C814.79 243.19 837.12 204.11 868.5 204.11C882.06 204.11 890.83 213.68 892.96 227.78L899.61 204.91H919.29C917.43 210.23 908.92 231.23 900.15 258.09C895.63 271.92 893.77 279.89 893.77 284.68C893.77 290.8 897.76 295.05 903.34 295.05C915.31 295.05 933.12 269.79 939.77 258.36L950.14 263.94C932.32 293.19 915.57 312.07 900.42 312.07C885.27 312.07 875.69 303.3 875.43 291.33L875.42 291.32ZM850.16 295.05C869.57 295.05 883.93 256.49 883.93 236.02C883.93 225.12 880.47 213.68 870.1 213.68C849.63 213.68 835.27 254.36 835.27 274.57C835.27 286 840.85 295.04 850.16 295.04V295.05Z" fill="#F2C435"/>
<path d="M933.38 290.52C933.38 279.09 940.83 251.43 952.53 214.47H940.56V204.9H955.45C964.76 175.12 976.19 140.55 988.16 103.86H1009.17C999.33 131.25 986.04 170.07 974.6 204.9H1000.92V214.47H971.4C960.76 247.97 952.52 276.42 952.52 284.67C952.52 290.79 955.71 295.04 961.29 295.04C979.9 295.04 1000.38 269.78 1007.02 258.35L1017.39 263.93C999.57 293.18 977.77 312.06 955.97 312.06C942.68 312.06 933.37 303.02 933.37 290.52H933.38Z" fill="#F2C435"/>
<mask id="mask0_2722_493" style="mask-type:luminance" maskUnits="userSpaceOnUse" x="0" y="0" width="369" height="369">
<path d="M368.5 0H0V368.5H368.5V0Z" fill="white"/>
</mask>
<g mask="url(#mask0_2722_493)">
<mask id="mask1_2722_493" style="mask-type:luminance" maskUnits="userSpaceOnUse" x="0" y="0" width="369" height="369">
<path d="M368.5 0H0V368.5H368.5V0Z" fill="white"/>
</mask>
<g mask="url(#mask1_2722_493)">
<mask id="mask2_2722_493" style="mask-type:luminance" maskUnits="userSpaceOnUse" x="0" y="0" width="369" height="369">
<path d="M368.5 0H0V368.5H368.5V0Z" fill="white"/>
</mask>
<g mask="url(#mask2_2722_493)">
<path d="M183.66 369.34C285.74 369.34 368.5 286.58 368.5 184.5C368.5 82.42 285.75 -0.339966 183.66 -0.339966C81.5701 -0.339966 -1.17993 82.42 -1.17993 184.5C-1.17993 286.58 81.5701 369.34 183.66 369.34Z" fill="#F2C435"/>
<g opacity="0.2">
<mask id="mask3_2722_493" style="mask-type:luminance" maskUnits="userSpaceOnUse" x="48" y="49" width="271" height="271">
<path d="M318.58 49.5901H48.7501V319.42H318.58V49.5901Z" fill="white"/>
</mask>
<g mask="url(#mask3_2722_493)">
<path d="M183.66 319.42C152.45 319.42 122.2 308.6 98.0701 288.8C73.9401 269 57.4301 241.44 51.3401 210.83C45.2501 180.22 49.9601 148.44 64.6801 120.91C79.3901 93.3801 103.2 71.81 132.03 59.86C160.87 47.92 192.95 46.34 222.82 55.4C252.69 64.46 278.49 83.6 295.83 109.55C313.17 135.5 320.98 166.67 317.92 197.73C314.86 228.79 301.13 257.83 279.06 279.9C266.56 292.47 251.69 302.43 235.32 309.21C218.94 315.99 201.39 319.46 183.66 319.41M183.66 57.91C113.85 57.91 57.0601 114.7 57.0601 184.51C57.0601 254.32 113.85 311.1 183.66 311.1C253.47 311.1 310.26 254.31 310.26 184.51C310.26 114.71 253.47 57.91 183.66 57.91Z" fill="black"/>
</g>
</g>
<path d="M183.66 315.26C255.87 315.26 314.41 256.72 314.41 184.51C314.41 112.3 255.87 53.75 183.66 53.75C111.45 53.75 52.91 112.29 52.91 184.5C52.91 256.71 111.45 315.25 183.66 315.25" fill="black"/>
<path d="M86.42 132.22C85.43 130.28 84.83 128.16 84.66 125.99C84.49 123.81 84.74 121.63 85.42 119.55C86.1 117.48 87.17 115.56 88.59 113.9C90.01 112.24 91.74 110.88 93.68 109.89C95.62 108.9 97.74 108.3 99.92 108.13C102.09 107.96 104.28 108.22 106.35 108.9C108.42 109.58 110.34 110.65 112 112.07C113.66 113.49 115.02 115.22 116 117.16L152.94 189.7C153.93 191.64 154.53 193.76 154.7 195.93C154.87 198.11 154.61 200.29 153.94 202.37C153.27 204.44 152.19 206.36 150.77 208.02C149.35 209.68 147.62 211.04 145.68 212.03C143.74 213.02 141.62 213.62 139.44 213.79C137.26 213.96 135.08 213.7 133.01 213.02C130.94 212.34 129.02 211.27 127.36 209.85C125.7 208.43 124.34 206.7 123.36 204.76L86.42 132.22Z" fill="#EF4036"/>
<g opacity="0.2">
<mask id="mask4_2722_493" style="mask-type:luminance" maskUnits="userSpaceOnUse" x="88" y="121" width="33" height="20">
<path d="M120.12 121.9H88.8401V140.31H120.12V121.9Z" fill="white"/>
</mask>
<g mask="url(#mask4_2722_493)">
<path d="M90.5401 140.31L88.8401 136.96C97.3501 130.35 107.34 125.49 118.41 121.9L120.11 125.25C108.13 127.75 97.9301 132.36 90.5401 140.31Z" fill="black"/>
</g>
</g>
<g opacity="0.2">
<mask id="mask5_2722_493" style="mask-type:luminance" maskUnits="userSpaceOnUse" x="96" y="137" width="33" height="19">
<path d="M128.07 137.53H96.79V155.94H128.07V137.53Z" fill="white"/>
</mask>
<g mask="url(#mask5_2722_493)">
<path d="M98.5 155.93L96.8 152.58C105.31 145.97 115.3 141.11 126.37 137.52L128.07 140.87C116.08 143.37 105.89 147.98 98.5 155.93Z" fill="black"/>
</g>
</g>
<g opacity="0.2">
<mask id="mask6_2722_493" style="mask-type:luminance" maskUnits="userSpaceOnUse" x="104" y="153" width="33" height="19">
<path d="M136.03 153.15H104.75V171.56H136.03V153.15Z" fill="white"/>
</mask>
<g mask="url(#mask6_2722_493)">
<path d="M106.46 171.56L104.76 168.21C113.27 161.6 123.26 156.74 134.33 153.15L136.03 156.5C124.05 159 113.85 163.61 106.46 171.56Z" fill="black"/>
</g>
</g>
<g opacity="0.2">
<mask id="mask7_2722_493" style="mask-type:luminance" maskUnits="userSpaceOnUse" x="112" y="168" width="32" height="20">
<path d="M143.99 168.77H112.71V187.18H143.99V168.77Z" fill="white"/>
</mask>
<g mask="url(#mask7_2722_493)">
<path d="M114.41 187.18L112.71 183.83C121.22 177.22 131.21 172.36 142.28 168.77L143.98 172.12C132 174.62 121.8 179.23 114.41 187.18Z" fill="black"/>
</g>
</g>
<g opacity="0.2">
<mask id="mask8_2722_493" style="mask-type:luminance" maskUnits="userSpaceOnUse" x="120" y="184" width="32" height="19">
<path d="M151.94 184.4H120.66V202.81H151.94V184.4Z" fill="white"/>
</mask>
<g mask="url(#mask8_2722_493)">
<path d="M122.37 202.81L120.67 199.46C129.18 192.85 139.17 187.99 150.24 184.4L151.94 187.75C139.96 190.25 129.76 194.86 122.37 202.81Z" fill="black"/>
</g>
</g>
<path d="M58.7101 159.38C57.7201 157.44 57.1201 155.32 56.9501 153.15C56.7801 150.97 57.0401 148.79 57.7101 146.72C58.3801 144.64 59.4601 142.72 60.8801 141.07C62.3001 139.41 64.0301 138.05 65.9701 137.06C67.9101 136.07 70.0301 135.47 72.2101 135.3C74.3801 135.13 76.5701 135.39 78.6401 136.07C80.7101 136.75 82.6301 137.82 84.2901 139.24C85.9501 140.66 87.3101 142.39 88.2901 144.33L125.23 216.87C127.22 220.79 127.57 225.34 126.21 229.52C124.85 233.7 121.88 237.17 117.96 239.17C114.04 241.17 109.49 241.52 105.31 240.17C101.13 238.81 97.6501 235.85 95.6501 231.93L58.7101 159.39V159.38Z" fill="#EF4036"/>
<g opacity="0.2">
<mask id="mask9_2722_493" style="mask-type:luminance" maskUnits="userSpaceOnUse" x="61" y="149" width="32" height="19">
<path d="M92.4001 149.06H61.1201V167.47H92.4001V149.06Z" fill="white"/>
</mask>
<g mask="url(#mask9_2722_493)">
<path d="M62.8301 167.47L61.1301 164.12C69.6401 157.51 79.6301 152.65 90.7001 149.06L92.4001 152.41C80.4201 154.91 70.2201 159.52 62.8301 167.47Z" fill="black"/>
</g>
</g>
<g opacity="0.2">
<mask id="mask10_2722_493" style="mask-type:luminance" maskUnits="userSpaceOnUse" x="69" y="164" width="32" height="20">
<path d="M100.36 164.68H69.0801V183.09H100.36V164.68Z" fill="white"/>
</mask>
<g mask="url(#mask10_2722_493)">
<path d="M70.7801 183.09L69.0801 179.74C77.5901 173.13 87.5801 168.27 98.6501 164.68L100.35 168.03C88.3701 170.53 78.1701 175.14 70.7801 183.09Z" fill="black"/>
</g>
</g>
<g opacity="0.2">
<mask id="mask11_2722_493" style="mask-type:luminance" maskUnits="userSpaceOnUse" x="77" y="180" width="32" height="19">
<path d="M108.32 180.31H77.04V198.72H108.32V180.31Z" fill="white"/>
</mask>
<g mask="url(#mask11_2722_493)">
<path d="M78.74 198.72L77.04 195.37C85.55 188.76 95.54 183.9 106.61 180.31L108.31 183.66C96.33 186.16 86.13 190.77 78.74 198.72Z" fill="black"/>
</g>
</g>
<g opacity="0.2">
<mask id="mask12_2722_493" style="mask-type:luminance" maskUnits="userSpaceOnUse" x="84" y="195" width="33" height="20">
<path d="M116.27 195.93H84.9901V214.34H116.27V195.93Z" fill="white"/>
</mask>
<g mask="url(#mask12_2722_493)">
<path d="M86.7001 214.34L85.0001 210.99C93.5101 204.38 103.5 199.52 114.57 195.93L116.27 199.28C104.29 201.78 94.0901 206.39 86.7001 214.34Z" fill="black"/>
</g>
</g>
<g opacity="0.2">
<mask id="mask13_2722_493" style="mask-type:luminance" maskUnits="userSpaceOnUse" x="92" y="211" width="33" height="19">
<path d="M124.23 211.56H92.9501V229.97H124.23V211.56Z" fill="white"/>
</mask>
<g mask="url(#mask13_2722_493)">
<path d="M94.6501 229.96L92.9501 226.61C101.46 220 111.45 215.14 122.52 211.55L124.22 214.9C112.24 217.4 102.04 222.01 94.6501 229.96Z" fill="black"/>
</g>
</g>
<path d="M271.03 188.66H271.15C275.13 188.69 279.03 187.53 282.33 185.31C285.64 183.09 288.2 179.94 289.68 176.24C292.73 168.53 294.27 160.3 294.21 152.01C294 116.91 265.45 88.11 230.35 87.62C215.4 87.41 200.84 92.38 189.14 101.68C177.43 110.98 169.3 124.04 166.13 138.65C162.95 153.26 164.93 168.51 171.72 181.83C178.51 195.15 189.7 205.71 203.38 211.72C207 213.32 211.01 213.79 214.9 213.07C218.79 212.35 222.37 210.47 225.17 207.68C231.18 201.64 238.33 196.85 246.2 193.58C254.07 190.31 262.51 188.64 271.04 188.65" fill="#E6E6E6"/>
<path d="M237.75 169.05C249.57 169.05 259.15 159.47 259.15 147.65C259.15 135.83 249.57 126.25 237.75 126.25C225.93 126.25 216.35 135.83 216.35 147.65C216.35 159.47 225.93 169.05 237.75 169.05Z" fill="#F8951D"/>
<path d="M191.24 145.25C192.63 145.25 193.76 144.12 193.76 142.73C193.76 141.34 192.63 140.21 191.24 140.21C189.85 140.21 188.72 141.34 188.72 142.73C188.72 144.12 189.85 145.25 191.24 145.25Z" fill="black"/>
<path d="M108.04 147.62C109.43 147.62 110.56 146.49 110.56 145.1C110.56 143.71 109.43 142.58 108.04 142.58C106.65 142.58 105.52 143.71 105.52 145.1C105.52 146.49 106.65 147.62 108.04 147.62Z" fill="black"/>
<path d="M204.68 119.13C206.07 119.13 207.2 118 207.2 116.61C207.2 115.22 206.07 114.09 204.68 114.09C203.29 114.09 202.16 115.22 202.16 116.61C202.16 118 203.29 119.13 204.68 119.13Z" fill="black"/>
<path d="M204.61 191.78C206 191.78 207.13 190.65 207.13 189.26C207.13 187.87 206 186.74 204.61 186.74C203.22 186.74 202.09 187.87 202.09 189.26C202.09 190.65 203.22 191.78 204.61 191.78Z" fill="black"/>
<path d="M254.53 113.92C255.92 113.92 257.05 112.79 257.05 111.4C257.05 110.01 255.92 108.88 254.53 108.88C253.14 108.88 252.01 110.01 252.01 111.4C252.01 112.79 253.14 113.92 254.53 113.92Z" fill="black"/>
<path d="M91.68 182.86C93.07 182.86 94.2 181.73 94.2 180.34C94.2 178.95 93.07 177.82 91.68 177.82C90.29 177.82 89.16 178.95 89.16 180.34C89.16 181.73 90.29 182.86 91.68 182.86Z" fill="black"/>
<path d="M110.11 219.12C111.5 219.12 112.63 217.99 112.63 216.6C112.63 215.21 111.5 214.08 110.11 214.08C108.72 214.08 107.59 215.21 107.59 216.6C107.59 217.99 108.72 219.12 110.11 219.12Z" fill="black"/>
<path d="M225.86 230.86C231.11 230.86 235.37 226.6 235.37 221.35C235.37 216.1 231.11 211.84 225.86 211.84C220.61 211.84 216.35 216.1 216.35 221.35C216.35 226.6 220.61 230.86 225.86 230.86Z" fill="#EF4036"/>
<g opacity="0.2">
<mask id="mask14_2722_493" style="mask-type:luminance" maskUnits="userSpaceOnUse" x="218" y="221" width="15" height="9">
<path d="M232.99 221.95H218.73V229.08H232.99V221.95Z" fill="white"/>
</mask>
<g mask="url(#mask14_2722_493)">
<path d="M232.99 221.95C232.99 223.84 232.24 225.66 230.9 226.99C229.56 228.33 227.75 229.08 225.86 229.08C223.97 229.08 222.15 228.33 220.82 226.99C219.48 225.65 218.73 223.84 218.73 221.95" fill="black"/>
</g>
</g>
<g opacity="0.2">
<mask id="mask15_2722_493" style="mask-type:luminance" maskUnits="userSpaceOnUse" x="218" y="213" width="15" height="8">
<path d="M232.99 213.63H218.73V220.76H232.99V213.63Z" fill="white"/>
</mask>
<g mask="url(#mask15_2722_493)">
<path d="M218.73 220.76C218.73 218.87 219.48 217.05 220.82 215.72C222.16 214.38 223.97 213.63 225.86 213.63C227.75 213.63 229.57 214.38 230.9 215.72C232.24 217.06 232.99 218.87 232.99 220.76" fill="black"/>
</g>
</g>
<path d="M222.29 218.97C222.62 218.97 222.88 218.57 222.88 218.08C222.88 217.59 222.61 217.19 222.29 217.19C221.97 217.19 221.7 217.59 221.7 218.08C221.7 218.57 221.97 218.97 222.29 218.97Z" fill="#EF4036"/>
<path d="M225.86 217.79C226.19 217.79 226.45 217.39 226.45 216.9C226.45 216.41 226.18 216.01 225.86 216.01C225.54 216.01 225.27 216.41 225.27 216.9C225.27 217.39 225.54 217.79 225.86 217.79Z" fill="#EF4036"/>
<path d="M225.86 225.51C226.19 225.51 226.45 225.11 226.45 224.62C226.45 224.13 226.18 223.73 225.86 223.73C225.54 223.73 225.27 224.13 225.27 224.62C225.27 225.11 225.54 225.51 225.86 225.51Z" fill="#EF4036"/>
<path d="M229.43 220.76C229.76 220.76 230.02 220.36 230.02 219.87C230.02 219.38 229.75 218.98 229.43 218.98C229.11 218.98 228.84 219.38 228.84 219.87C228.84 220.36 229.11 220.76 229.43 220.76Z" fill="#EF4036"/>
<path d="M228.83 227.29C229.16 227.29 229.42 226.89 229.42 226.4C229.42 225.91 229.15 225.51 228.83 225.51C228.51 225.51 228.24 225.91 228.24 226.4C228.24 226.89 228.51 227.29 228.83 227.29Z" fill="#EF4036"/>
<path d="M221.7 224.32C222.03 224.32 222.29 223.92 222.29 223.43C222.29 222.94 222.02 222.54 221.7 222.54C221.38 222.54 221.11 222.94 221.11 223.43C221.11 223.92 221.38 224.32 221.7 224.32Z" fill="#EF4036"/>
<path d="M244.88 205.3C250.13 205.3 254.39 201.04 254.39 195.79C254.39 190.54 250.13 186.28 244.88 186.28C239.63 186.28 235.37 190.54 235.37 195.79C235.37 201.04 239.63 205.3 244.88 205.3Z" fill="#EF4036"/>
<g opacity="0.2">
<mask id="mask16_2722_493" style="mask-type:luminance" maskUnits="userSpaceOnUse" x="237" y="196" width="16" height="8">
<path d="M252.01 196.39H237.75V203.52H252.01V196.39Z" fill="white"/>
</mask>
<g mask="url(#mask16_2722_493)">
<path d="M252.01 196.39C252.01 198.28 251.26 200.1 249.92 201.43C248.58 202.77 246.77 203.52 244.88 203.52C242.99 203.52 241.17 202.77 239.84 201.43C238.5 200.09 237.75 198.28 237.75 196.39" fill="black"/>
</g>
</g>
<g opacity="0.2">
<mask id="mask17_2722_493" style="mask-type:luminance" maskUnits="userSpaceOnUse" x="237" y="188" width="16" height="8">
<path d="M252.01 188.07H237.75V195.2H252.01V188.07Z" fill="white"/>
</mask>
<g mask="url(#mask17_2722_493)">
<path d="M237.75 195.2C237.75 193.31 238.5 191.49 239.84 190.16C241.18 188.82 242.99 188.07 244.88 188.07C246.77 188.07 248.59 188.82 249.92 190.16C251.26 191.5 252.01 193.31 252.01 195.2" fill="black"/>
</g>
</g>
<path d="M241.31 193.42C241.64 193.42 241.9 193.02 241.9 192.53C241.9 192.04 241.63 191.64 241.31 191.64C240.99 191.64 240.72 192.04 240.72 192.53C240.72 193.02 240.99 193.42 241.31 193.42Z" fill="#EF4036"/>
<path d="M244.88 192.23C245.21 192.23 245.47 191.83 245.47 191.34C245.47 190.85 245.2 190.45 244.88 190.45C244.56 190.45 244.29 190.85 244.29 191.34C244.29 191.83 244.56 192.23 244.88 192.23Z" fill="#EF4036"/>
<path d="M244.88 199.96C245.21 199.96 245.47 199.56 245.47 199.07C245.47 198.58 245.2 198.18 244.88 198.18C244.56 198.18 244.29 198.58 244.29 199.07C244.29 199.56 244.56 199.96 244.88 199.96Z" fill="#EF4036"/>
<path d="M248.44 195.2C248.77 195.2 249.03 194.8 249.03 194.31C249.03 193.82 248.76 193.42 248.44 193.42C248.12 193.42 247.85 193.82 247.85 194.31C247.85 194.8 248.12 195.2 248.44 195.2Z" fill="#EF4036"/>
<path d="M247.85 201.74C248.18 201.74 248.44 201.34 248.44 200.85C248.44 200.36 248.17 199.96 247.85 199.96C247.53 199.96 247.26 200.36 247.26 200.85C247.26 201.34 247.53 201.74 247.85 201.74Z" fill="#EF4036"/>
<path d="M240.72 198.77C241.05 198.77 241.31 198.37 241.31 197.88C241.31 197.39 241.04 196.99 240.72 196.99C240.4 196.99 240.13 197.39 240.13 197.88C240.13 198.37 240.4 198.77 240.72 198.77Z" fill="#EF4036"/>
<path d="M263.9 218.38C269.15 218.38 273.41 214.12 273.41 208.87C273.41 203.62 269.15 199.36 263.9 199.36C258.65 199.36 254.39 203.62 254.39 208.87C254.39 214.12 258.65 218.38 263.9 218.38Z" fill="#F2C435"/>
<g opacity="0.2">
<mask id="mask18_2722_493" style="mask-type:luminance" maskUnits="userSpaceOnUse" x="256" y="209" width="16" height="8">
<path d="M271.03 209.46H256.77V216.59H271.03V209.46Z" fill="white"/>
</mask>
<g mask="url(#mask18_2722_493)">
<path d="M271.03 209.46C271.03 211.35 270.28 213.17 268.94 214.5C267.6 215.84 265.79 216.59 263.9 216.59C262.01 216.59 260.19 215.84 258.86 214.5C257.52 213.16 256.77 211.35 256.77 209.46" fill="black"/>
</g>
</g>
<g opacity="0.2">
<mask id="mask19_2722_493" style="mask-type:luminance" maskUnits="userSpaceOnUse" x="256" y="201" width="16" height="8">
<path d="M271.03 201.14H256.77V208.27H271.03V201.14Z" fill="white"/>
</mask>
<g mask="url(#mask19_2722_493)">
<path d="M256.77 208.28C256.77 206.39 257.52 204.57 258.86 203.24C260.2 201.9 262.01 201.15 263.9 201.15C265.79 201.15 267.61 201.9 268.94 203.24C270.28 204.58 271.03 206.39 271.03 208.28" fill="black"/>
</g>
</g>
<path d="M260.33 206.49C260.66 206.49 260.92 206.09 260.92 205.6C260.92 205.11 260.65 204.71 260.33 204.71C260.01 204.71 259.74 205.11 259.74 205.6C259.74 206.09 260.01 206.49 260.33 206.49Z" fill="#F2C435"/>
<path d="M263.9 205.3C264.23 205.3 264.49 204.9 264.49 204.41C264.49 203.92 264.22 203.52 263.9 203.52C263.58 203.52 263.31 203.92 263.31 204.41C263.31 204.9 263.58 205.3 263.9 205.3Z" fill="#F2C435"/>
<path d="M263.9 213.03C264.23 213.03 264.49 212.63 264.49 212.14C264.49 211.65 264.22 211.25 263.9 211.25C263.58 211.25 263.31 211.65 263.31 212.14C263.31 212.63 263.58 213.03 263.9 213.03Z" fill="#F2C435"/>
<path d="M267.46 208.28C267.79 208.28 268.05 207.88 268.05 207.39C268.05 206.9 267.78 206.5 267.46 206.5C267.14 206.5 266.87 206.9 266.87 207.39C266.87 207.88 267.14 208.28 267.46 208.28Z" fill="#F2C435"/>
<path d="M266.87 214.81C267.2 214.81 267.46 214.41 267.46 213.92C267.46 213.43 267.19 213.03 266.87 213.03C266.55 213.03 266.28 213.43 266.28 213.92C266.28 214.41 266.55 214.81 266.87 214.81Z" fill="#F2C435"/>
<path d="M259.74 211.84C260.07 211.84 260.33 211.44 260.33 210.95C260.33 210.46 260.06 210.06 259.74 210.06C259.42 210.06 259.15 210.46 259.15 210.95C259.15 211.44 259.42 211.84 259.74 211.84Z" fill="#F2C435"/>
<path d="M216.35 219.57C221.6 219.57 225.86 215.31 225.86 210.06C225.86 204.81 221.6 200.55 216.35 200.55C211.1 200.55 206.84 204.81 206.84 210.06C206.84 215.31 211.1 219.57 216.35 219.57Z" fill="#F2C435"/>
<g opacity="0.2">
<mask id="mask20_2722_493" style="mask-type:luminance" maskUnits="userSpaceOnUse" x="209" y="210" width="15" height="8">
<path d="M223.48 210.65H209.22V217.78H223.48V210.65Z" fill="white"/>
</mask>
<g mask="url(#mask20_2722_493)">
<path d="M223.48 210.65C223.48 212.54 222.73 214.36 221.39 215.69C220.05 217.03 218.24 217.78 216.35 217.78C214.46 217.78 212.64 217.03 211.31 215.69C209.97 214.35 209.22 212.54 209.22 210.65" fill="black"/>
</g>
</g>
<g opacity="0.2">
<mask id="mask21_2722_493" style="mask-type:luminance" maskUnits="userSpaceOnUse" x="209" y="202" width="15" height="8">
<path d="M223.48 202.33H209.22V209.46H223.48V202.33Z" fill="white"/>
</mask>
<g mask="url(#mask21_2722_493)">
<path d="M209.22 209.46C209.22 207.57 209.97 205.75 211.31 204.42C212.65 203.08 214.46 202.33 216.35 202.33C218.24 202.33 220.06 203.08 221.39 204.42C222.73 205.76 223.48 207.57 223.48 209.46" fill="black"/>
</g>
</g>
<path d="M212.78 207.68C213.11 207.68 213.37 207.28 213.37 206.79C213.37 206.3 213.1 205.9 212.78 205.9C212.46 205.9 212.19 206.3 212.19 206.79C212.19 207.28 212.46 207.68 212.78 207.68Z" fill="#F2C435"/>
<path d="M216.35 206.49C216.68 206.49 216.94 206.09 216.94 205.6C216.94 205.11 216.67 204.71 216.35 204.71C216.03 204.71 215.76 205.11 215.76 205.6C215.76 206.09 216.03 206.49 216.35 206.49Z" fill="#F2C435"/>
<path d="M216.35 214.22C216.68 214.22 216.94 213.82 216.94 213.33C216.94 212.84 216.67 212.44 216.35 212.44C216.03 212.44 215.76 212.84 215.76 213.33C215.76 213.82 216.03 214.22 216.35 214.22Z" fill="#F2C435"/>
<path d="M219.92 209.46C220.25 209.46 220.51 209.06 220.51 208.57C220.51 208.08 220.24 207.68 219.92 207.68C219.6 207.68 219.33 208.08 219.33 208.57C219.33 209.06 219.6 209.46 219.92 209.46Z" fill="#F2C435"/>
<path d="M219.32 216C219.65 216 219.91 215.6 219.91 215.11C219.91 214.62 219.64 214.22 219.32 214.22C219 214.22 218.73 214.62 218.73 215.11C218.73 215.6 219 216 219.32 216Z" fill="#F2C435"/>
<path d="M212.19 213.03C212.52 213.03 212.78 212.63 212.78 212.14C212.78 211.65 212.51 211.25 212.19 211.25C211.87 211.25 211.6 211.65 211.6 212.14C211.6 212.63 211.87 213.03 212.19 213.03Z" fill="#F2C435"/>
<path d="M237.75 223.73C243 223.73 247.26 219.47 247.26 214.22C247.26 208.97 243 204.71 237.75 204.71C232.5 204.71 228.24 208.97 228.24 214.22C228.24 219.47 232.5 223.73 237.75 223.73Z" fill="#F2C435"/>
<g opacity="0.2">
<mask id="mask22_2722_493" style="mask-type:luminance" maskUnits="userSpaceOnUse" x="230" y="214" width="15" height="8">
<path d="M244.87 214.81H230.61V221.94H244.87V214.81Z" fill="white"/>
</mask>
<g mask="url(#mask22_2722_493)">
<path d="M244.88 214.81C244.88 215.75 244.7 216.67 244.34 217.54C243.98 218.41 243.46 219.19 242.79 219.86C242.13 220.52 241.34 221.05 240.48 221.41C239.62 221.77 238.69 221.95 237.75 221.95C236.81 221.95 235.89 221.77 235.02 221.41C234.15 221.05 233.37 220.52 232.7 219.86C232.04 219.2 231.51 218.41 231.15 217.54C230.79 216.68 230.61 215.75 230.61 214.81" fill="black"/>
</g>
</g>
<g opacity="0.2">
<mask id="mask23_2722_493" style="mask-type:luminance" maskUnits="userSpaceOnUse" x="230" y="206" width="15" height="8">
<path d="M244.87 206.49H230.61V213.62H244.87V206.49Z" fill="white"/>
</mask>
<g mask="url(#mask23_2722_493)">
<path d="M230.61 213.63C230.61 212.69 230.79 211.77 231.15 210.9C231.51 210.04 232.03 209.25 232.7 208.59C233.36 207.93 234.15 207.4 235.02 207.04C235.88 206.68 236.81 206.5 237.75 206.5C238.69 206.5 239.62 206.68 240.48 207.04C241.34 207.4 242.13 207.92 242.79 208.59C243.45 209.25 243.98 210.04 244.34 210.9C244.7 211.77 244.88 212.69 244.88 213.63" fill="black"/>
</g>
</g>
<path d="M234.18 211.84C234.51 211.84 234.77 211.44 234.77 210.95C234.77 210.46 234.5 210.06 234.18 210.06C233.86 210.06 233.59 210.46 233.59 210.95C233.59 211.44 233.86 211.84 234.18 211.84Z" fill="#F2C435"/>
<path d="M237.75 210.65C238.08 210.65 238.34 210.25 238.34 209.76C238.34 209.27 238.07 208.87 237.75 208.87C237.43 208.87 237.16 209.27 237.16 209.76C237.16 210.25 237.43 210.65 237.75 210.65Z" fill="#F2C435"/>
<path d="M237.75 218.38C238.08 218.38 238.34 217.98 238.34 217.49C238.34 217 238.07 216.6 237.75 216.6C237.43 216.6 237.16 217 237.16 217.49C237.16 217.98 237.43 218.38 237.75 218.38Z" fill="#F2C435"/>
<path d="M241.31 213.63C241.64 213.63 241.9 213.23 241.9 212.74C241.9 212.25 241.63 211.85 241.31 211.85C240.99 211.85 240.72 212.25 240.72 212.74C240.72 213.23 240.99 213.63 241.31 213.63Z" fill="#F2C435"/>
<path d="M240.72 220.16C241.05 220.16 241.31 219.76 241.31 219.27C241.31 218.78 241.04 218.38 240.72 218.38C240.4 218.38 240.13 218.78 240.13 219.27C240.13 219.76 240.4 220.16 240.72 220.16Z" fill="#F2C435"/>
<path d="M233.59 217.19C233.92 217.19 234.18 216.79 234.18 216.3C234.18 215.81 233.91 215.41 233.59 215.41C233.27 215.41 233 215.81 233 216.3C233 216.79 233.27 217.19 233.59 217.19Z" fill="#F2C435"/>
<path d="M252.6 233.83C257.85 233.83 262.11 229.57 262.11 224.32C262.11 219.07 257.85 214.81 252.6 214.81C247.35 214.81 243.09 219.07 243.09 224.32C243.09 229.57 247.35 233.83 252.6 233.83Z" fill="#EF4036"/>
<g opacity="0.2">
<mask id="mask24_2722_493" style="mask-type:luminance" maskUnits="userSpaceOnUse" x="245" y="224" width="15" height="9">
<path d="M259.73 224.92H245.47V232.05H259.73V224.92Z" fill="white"/>
</mask>
<g mask="url(#mask24_2722_493)">
<path d="M259.74 224.92C259.74 226.81 258.99 228.63 257.65 229.96C256.31 231.3 254.5 232.05 252.61 232.05C250.72 232.05 248.9 231.3 247.57 229.96C246.23 228.62 245.48 226.81 245.48 224.92" fill="black"/>
</g>
</g>
<g opacity="0.2">
<mask id="mask25_2722_493" style="mask-type:luminance" maskUnits="userSpaceOnUse" x="245" y="216" width="15" height="8">
<path d="M259.73 216.6H245.47V223.73H259.73V216.6Z" fill="white"/>
</mask>
<g mask="url(#mask25_2722_493)">
<path d="M245.47 223.73C245.47 221.84 246.22 220.02 247.56 218.69C248.9 217.35 250.71 216.6 252.6 216.6C254.49 216.6 256.31 217.35 257.64 218.69C258.98 220.03 259.73 221.84 259.73 223.73" fill="black"/>
</g>
</g>
<path d="M249.04 221.95C249.37 221.95 249.63 221.55 249.63 221.06C249.63 220.57 249.36 220.17 249.04 220.17C248.72 220.17 248.45 220.57 248.45 221.06C248.45 221.55 248.72 221.95 249.04 221.95Z" fill="#EF4036"/>
<path d="M252.6 220.76C252.93 220.76 253.19 220.36 253.19 219.87C253.19 219.38 252.92 218.98 252.6 218.98C252.28 218.98 252.01 219.38 252.01 219.87C252.01 220.36 252.28 220.76 252.6 220.76Z" fill="#EF4036"/>
<path d="M252.6 228.48C252.93 228.48 253.19 228.08 253.19 227.59C253.19 227.1 252.92 226.7 252.6 226.7C252.28 226.7 252.01 227.1 252.01 227.59C252.01 228.08 252.28 228.48 252.6 228.48Z" fill="#EF4036"/>
<path d="M256.17 223.73C256.5 223.73 256.76 223.33 256.76 222.84C256.76 222.35 256.49 221.95 256.17 221.95C255.85 221.95 255.58 222.35 255.58 222.84C255.58 223.33 255.85 223.73 256.17 223.73Z" fill="#EF4036"/>
<path d="M255.58 230.27C255.91 230.27 256.17 229.87 256.17 229.38C256.17 228.89 255.9 228.49 255.58 228.49C255.26 228.49 254.99 228.89 254.99 229.38C254.99 229.87 255.26 230.27 255.58 230.27Z" fill="#EF4036"/>
<path d="M248.44 227.29C248.77 227.29 249.03 226.89 249.03 226.4C249.03 225.91 248.76 225.51 248.44 225.51C248.12 225.51 247.85 225.91 247.85 226.4C247.85 226.89 248.12 227.29 248.44 227.29Z" fill="#EF4036"/>
<path d="M130.31 190.59C131.7 190.59 132.83 189.46 132.83 188.07C132.83 186.68 131.7 185.55 130.31 185.55C128.92 185.55 127.79 186.68 127.79 188.07C127.79 189.46 128.92 190.59 130.31 190.59Z" fill="black"/>
<path d="M198.83 279.56L138.29 262.77L140.61 254.16L201.15 270.95L198.83 279.56Z" fill="#F8951D"/>
<path d="M189.95 276.68C169.22 280.65 147.93 280.65 127.19 276.68V267.75C147.97 271.19 169.17 271.19 189.95 267.75V276.68Z" fill="#F8951D"/>
<path d="M196.41 249.89C175.68 253.86 154.39 253.86 133.65 249.89V240.96C154.43 244.4 175.63 244.4 196.41 240.96V249.89Z" fill="#F8951D"/>
<path d="M218.11 260.61C197.38 264.58 176.09 264.58 155.35 260.61V251.68C176.13 255.12 197.33 255.12 218.11 251.68V260.61Z" fill="#F8951D"/>
<path d="M223.38 270.73C202.65 274.7 181.36 274.7 160.62 270.73V261.8C181.4 265.24 202.6 265.24 223.38 261.8V270.73Z" fill="#F8951D"/>
<path d="M241.79 283.95L179.87 294.35L178.44 285.54L240.35 275.14L241.79 283.95Z" fill="#F8951D"/>
<path d="M232.54 285.1C215.37 297.47 196.03 306.5 175.52 311.7L171.85 303.59C192.18 297.9 211.44 288.91 228.87 276.99L232.54 285.1Z" fill="#F8951D"/>
<path d="M227.38 258.02C210.21 270.39 190.87 279.42 170.36 284.62L166.69 276.51C187.02 270.82 206.28 261.83 223.71 249.92L227.38 258.03V258.02Z" fill="#F8951D"/>
<path d="M251.51 258.56C234.34 270.93 215 279.96 194.49 285.16L190.82 277.05C211.15 271.36 230.41 262.37 247.84 250.45L251.51 258.56Z" fill="#F8951D"/>
<path d="M260.47 265.52C243.3 277.89 223.96 286.92 203.45 292.12L199.78 284.01C220.11 278.32 239.37 269.33 256.8 257.41L260.47 265.52Z" fill="#F8951D"/>
<path d="M185.44 248.1H182.47V251.07H185.44V248.1Z" fill="#67BE61"/>
<path d="M194.36 299.8H191.39V302.77H194.36V299.8Z" fill="#67BE61"/>
<path d="M146.81 248.1H143.84V251.07H146.81V248.1Z" fill="#67BE61"/>
<path d="M215.75 284.95H212.78V287.92H215.75V284.95Z" fill="#67BE61"/>
<path d="M217.54 267.71H214.57V270.68H217.54V267.71Z" fill="#67BE61"/>
<path d="M165.077 257.242L163.74 259.211L167.182 261.548L168.519 259.578L165.077 257.242Z" fill="#67BE61"/>
<path d="M200.145 263.779L198.809 265.748L202.25 268.085L203.587 266.116L200.145 263.779Z" fill="#67BE61"/>
<path d="M157.348 275.072L156.011 277.041L159.453 279.377L160.79 277.408L157.348 275.072Z" fill="#67BE61"/>
<path d="M182.952 272.455L180.616 275.897L182.585 277.234L184.921 273.792L182.952 272.455Z" fill="#67BE61"/>
<path d="M198.999 276.612L196.662 280.054L198.631 281.391L200.968 277.949L198.999 276.612Z" fill="#67BE61"/>
<path d="M241.793 262.36L239.457 265.802L241.426 267.139L243.762 263.697L241.793 262.36Z" fill="#67BE61"/>
</g>
</g>
</g>
</g>
<defs>
<clipPath id="clip0_2722_493">
<rect width="1017.41" height="368.5" fill="white"/>
</clipPath>
</defs>
</svg>
